<?xml version="1.0" encoding="iso-8859-1"?>
<!-- Generator: Adobe Illustrator 19.0.0, SVG Export Plug-In . SVG Version: 6.00 Build 0)  -->
<svg version="1.1" id="Layer_1" xmlns="http://www.w3.org/2000/svg" xmlns:xlink="http://www.w3.org/1999/xlink" x="0px" y="0px"
	 viewBox="0 0 512 512" style="enable-background:new 0 0 512 512;" xml:space="preserve">
<g transform="translate(1 1)">
	<path style="fill:#8697CB;" d="M502.172,255c0,136.51-110.663,247.172-247.172,247.172S7.828,391.51,7.828,255
		S118.49,7.828,255,7.828S502.172,118.49,502.172,255"/>
	<g>
<path style="fill:#556080;" d="M255,511C113.838,511-1,396.153-1,255C-1,113.838,113.838-1,255-1c141.153,0,256,114.838,256,256
			C511,396.153,396.153,511,255,511z M255,16.655C123.575,16.655,16.655,123.575,16.655,255S123.575,493.345,255,493.345
			S493.345,386.425,493.345,255S386.425,16.655,255,16.655z"/>
<path style="fill:#556080;" d="M255,511c-4.873,0-8.828-3.946-8.828-8.828V7.828C246.172,2.955,250.127-1,255-1
			c4.882,0,8.828,3.955,8.828,8.828v494.345C263.828,507.054,259.882,511,255,511z"/>
<path style="fill:#556080;" d="M255,511c-1.315,0-2.622-0.044-3.937-0.088l-4.926-0.124l-2.339-1.898
			C166.768,446.488,122.586,353.948,122.586,255S166.768,63.512,243.798,1.11l2.339-1.898l4.961-0.132
			C252.396-0.956,253.694-1,255-1c4.882,0,8.828,3.955,8.828,8.828s-3.946,8.828-8.828,8.828c-0.794,0-1.58,0.018-2.375,0.044
			C181.166,75.703,140.241,162.381,140.241,255c0,92.61,40.916,179.297,112.384,238.301c0.786,0.026,1.58,0.044,2.375,0.044
			c4.882,0,8.828,3.946,8.828,8.828C263.828,507.054,259.882,511,255,511z"/>
<path style="fill:#556080;" d="M255,149.069c-66.092,0-129.792-19.677-184.205-56.911c-4.025-2.754-5.049-8.245-2.295-12.27
			c2.754-4.017,8.245-5.049,12.27-2.295c51.465,35.213,111.704,53.822,174.23,53.822c62.517,0,122.765-18.609,174.23-53.822
			c4.043-2.745,9.525-1.713,12.27,2.295c2.754,4.025,1.721,9.516-2.304,12.27C384.792,129.392,321.092,149.069,255,149.069z"/>
		<path style="fill:#556080;" d="M502.172,263.828H7.828C2.955,263.828-1,259.873-1,255s3.955-8.828,8.828-8.828h494.345
			c4.882,0,8.828,3.955,8.828,8.828S507.054,263.828,502.172,263.828z"/>
		<path style="fill:#556080;" d="M75.8,425.116c-2.816,0-5.579-1.342-7.292-3.849c-2.754-4.017-1.721-9.516,2.295-12.27
			C125.208,371.78,188.899,352.103,255,352.103s129.801,19.677,184.205,56.903c4.025,2.754,5.049,8.254,2.304,12.27
			c-2.745,4.017-8.236,5.058-12.27,2.304C377.774,388.367,317.526,369.759,255,369.759S132.235,388.367,80.779,423.58
			C79.252,424.622,77.513,425.116,75.8,425.116z"/>
		<path style="fill:#556080;" d="M255,511c-4.873,0-8.828-3.946-8.828-8.828c0-4.882,3.955-8.828,8.828-8.828
			c0.794,0,1.589-0.018,2.375-0.044C328.834,434.297,369.759,347.619,369.759,255S328.834,75.703,257.375,16.699
			c-0.794-0.026-1.58-0.044-2.375-0.044c-4.873,0-8.828-3.955-8.828-8.828S250.127-1,255-1c1.306,0,2.604,0.044,3.902,0.088
			l4.952,0.132l2.348,1.898C343.232,63.512,387.414,156.052,387.414,255s-44.182,191.488-121.212,253.899l-2.348,1.898l-4.917,0.124
			C257.631,510.956,256.315,511,255,511z"/>
	</g>
</g>
<g>
</g>
<g>
</g>
<g>
</g>
<g>
</g>
<g>
</g>
<g>
</g>
<g>
</g>
<g>
</g>
<g>
</g>
<g>
</g>
<g>
</g>
<g>
</g>
<g>
</g>
<g>
</g>
<g>
</g>
</svg>
